# AST/ASF file generated using VICON BodyLanguage
# -----------------------------------------------
:version 1.10
:name VICON
:units
  mass 1.0
  length 0.1
  angle deg
:documentation
   .ast/.asf automatically generated from VICON data using
   VICON BodyBuilder and BodyLanguage model FULLBODY5.MOD
:root
   order TX TY TZ RZ RY RX
   axis XYZ
   position 0 0 0  
   orientation 0 -0 0 
:bonedata
  begin
     id 1 
     name lhipjoint
     direction 0.969109 -0.218487 0.11442 
     length 0.544217 
     axis 0 -0 0  XYZ
  end
  begin
     id 2 
     name lfemur
     direction 0.173648 -0.984808 0  
     length 1.81499  
     axis 0 -0 10  XYZ
    dof rx ry rz
    limits (-180.0 180.0)
           (-180.0 180.0)
           (-180.0 180.0)
  end
  begin
     id 3 
     name ltibia
     direction 0.173515 -0.984831 0   
     length 1.55296   
     axis 0 -0 10   XYZ
    dof rx ry rz
    limits (-180.0 180.0)
           (-180.0 180.0)
           (-180.0 180.0)
  end
  begin
     id 4 
     name lfoot
     direction 7.36097e-012 -0.333012 0.942922   
     length 0.509062   
     axis -90 -1.73656e-015 10   XYZ
    dof rx ry rz
    limits (-180.0 180.0)
           (-180.0 180.0)
           (-180.0 180.0)
  end
  begin
     id 5 
     name ltoes
     direction 7.7847e-012 -4.42403e-011 1   
     length 0.249732   
     axis -90 -1.73656e-015 10   XYZ
    dof rx ry rz
    limits (-180.0 180.0)
           (-180.0 180.0)
           (-180.0 180.0)
  end
  begin
     id 6 
     name rhipjoint
     direction -0.966745 -0.226554 0.118645   
     length 0.524838  
     axis 0 -0 0  XYZ 
  end
  begin
     id 7 
     name rfemur
     direction -0.173648 -0.984808 0   
     length 1.84625   
     axis 0 -0 -10   XYZ
    dof rx ry rz
    limits (-180.0 180.0)
           (-180.0 180.0)
           (-180.0 180.0)
  end
  begin
     id 8 
     name rtibia
     direction -0.173714 -0.984796 0   
     length 1.577   
     axis 0 -0 -10   XYZ
    dof rx ry rz
    limits (-180.0 180.0)
           (-180.0 180.0)
           (-180.0 180.0)
 end
 begin
     id 9 
     name rfoot
     direction -0.0183819 -0.0406144 0.999006   
     length 0.490111  
     axis -90 1.73656e-015 -10   XYZ
    dof rx ry rz
    limits (-180.0 180.0)
           (-180.0 180.0)
           (-180.0 180.0)
  end
  begin
     id 10 
     name rtoes
     direction -7.79087e-012 -4.42375e-011 1   
     length 0.245053   
     axis -90 1.73656e-015 -10   XYZ
    dof rx ry rz
    limits (-180.0 180.0)
           (-180.0 180.0)
           (-180.0 180.0)
  end
  begin
     id 11 
     name lowerback
     direction -0.0664844 0.980601 0.184393   
     length 0.458979   
     axis 0 -0 0   XYZ
    dof rx ry rz
    limits (-180.0 180.0)
           (-180.0 180.0)
           (-180.0 180.0)
  end
  begin
     id 12 
     name upperback
     direction 0.0135995 0.999573 0.02588   
     length 0.463983   
     axis 0 -0 0   XYZ
    dof rx ry rz
    limits (-180.0 180.0)
           (-180.0 180.0)
           (-180.0 180.0)
  end
  begin
     id 13 
     name thorax
     direction 0.0468402 0.997311 -0.0563691   
     length 0.482746   
     axis 0 -0 0   XYZ
    dof rx ry rz
    limits (-180.0 180.0)
           (-180.0 180.0)
           (-180.0 180.0)
  end
  begin
     id 14 
     name lowerneck
     direction -0.00174311 0.988586 -0.150647   
     length 0.364383   
     axis 0 -0 0   XYZ
    dof rx ry rz
    limits (-180.0 180.0)
           (-180.0 180.0)
           (-180.0 180.0)
  end
  begin
     id 15 
     name upperneck
     direction -0.02653 0.999379 -0.0231908   
     length 0.361006   
     axis 0 -0 0   XYZ
    dof rx ry rz
    limits (-180.0 180.0)
           (-180.0 180.0)
           (-180.0 180.0)
  end
  begin
     id 16
     name head
     direction -0.00819207 0.999941 0.00714285  
     length 0.378714  
     axis 0 -0 0   XYZ
    dof rx ry rz
    limits (-180.0 180.0)
           (-180.0 180.0)
           (-180.0 180.0)
  end
  begin
     id 17 
     name lshoulderjoint
     direction 0.981627 -0.190809 0  
     length 0.612969  
     axis 0 -0 -11   XYZ
    dof rx ry rz
    limits (-180.0 180.0)
           (-180.0 180.0)
           (-180.0 180.0)
  end
  begin
     id 18 
     name lhumerus
     direction 0.48481 -0.87462 -9.72962e-027   
     length 1.19637   
     axis -180 5.14477e-009 -151   XYZ
    dof rx ry rz
    limits (-180.0 180.0)
           (-180.0 180.0)
           (-180.0 180.0)
  end
  begin
     id 19
     name lradius
     direction 0.48481 -0.87462 -2.35761e-026   
     length 0.637735   
     axis -180 5.14477e-009 -151   XYZ
    dof rx ry rz
    limits (-180.0 180.0)
           (-180.0 180.0)
           (-180.0 180.0)
  end
  begin
     id 20
     name lwrist
     direction 0.48481 -0.87462 -5.51856e-026   
     length 0.318868   
     axis -180 5.14477e-009 -151   XYZ
    dof rx ry rz
    limits (-180.0 180.0)
           (-180.0 180.0)
           (-180.0 180.0)
  end
  begin
     id 21 
     name lhand
     direction 0.477747 -0.861928 -0.169816   
     length 0.29526   
     axis -180 5.14477e-009 -151   XYZ
    dof rx ry rz
    limits (-180.0 180.0)
           (-180.0 180.0)
           (-180.0 180.0)
  end
  begin
     id 22 
     name rshoulderjoint
     direction -0.981627 -0.190809 0   
     length 0.572347  
     axis 0 -0 11   XYZ 
    dof rx ry rz
    limits (-180.0 180.0)
           (-180.0 180.0)
           (-180.0 180.0)
  end
  begin
     id 23 
     name rhumerus
     direction -0.48481 -0.87462 1.64836e-026  
     length 1.28846   
     axis 180 5.14477e-009 151   XYZ
    dof rx ry rz
    limits (-180.0 180.0)
           (-180.0 180.0)
           (-180.0 180.0)
  end
  begin
     id 24 
     name rradius
     direction -0.48481 -0.87462 2.86827e-026   
     length 0.62107   
     axis 180 5.14477e-009 151   XYZ
    dof rx ry rz
    limits (-180.0 180.0)
           (-180.0 180.0)
           (-180.0 180.0)
  end
  begin
     id 25 
     name rwrist
     direction -0.48481 -0.87462 5.20942e-026   
     length 0.310535   
     axis 180 5.14477e-009 151   XYZ
    dof rx ry rz
    limits (-180.0 180.0)
           (-180.0 180.0)
           (-180.0 180.0)
  end
  begin
     id 26
     name rhand
     direction -0.477664 -0.861515 -0.172133   
     length 0.291321   
     axis 180 5.14477e-009 151   XYZ
    dof rx ry rz
    limits (-180.0 180.0)
           (-180.0 180.0)
           (-180.0 180.0)
  end
:hierarchy
  begin
    root lhipjoint rhipjoint lowerback 
    lhipjoint lfemur
    lfemur ltibia
    ltibia lfoot
    lfoot ltoes
    rhipjoint rfemur
    rfemur rtibia
    rtibia rfoot
    rfoot rtoes
    lowerback upperback
    upperback thorax
    thorax lowerneck lshoulderjoint rshoulderjoint
    lowerneck upperneck
    upperneck head
    lshoulderjoint lhumerus
    lhumerus lradius
    lradius lwrist
    lwrist lhand
    rshoulderjoint rhumerus
    rhumerus rradius
    rradius rwrist
    rwrist rhand
  end

:FULLY-SPECIFIED
:DEGREES
1456
root -10.3974 3.80611 -0.59473 169.469 -29.2116 158.941
lowerback -21.2687 -0.864707 -10.827
upperback -5.55863 0.410751 0.105152
thorax 5.61126 -0.201715 6.3686
lowerneck 12.4858 -6.40314 2.65285
upperneck 4.04605 -8.65876 2.83639
head -0.772725 -4.55554 0.819767
rshoulderjoint -2.44843 7.4966 -29.1459
rhumerus 348.146 -7.37723 -411.109
rradius 25.391 -3.49861e-014 1.58779e-013
rwrist -2.55072e-013 8.96018 3.54183e-013
rhand 8.88896 -7.58279 32.7026
lshoulderjoint -1.6525 -4.52362 31.0918
lhumerus 351.649 24.8133 414.177
lradius 14.4962 -3.53042e-013 2.22639e-013
lwrist 4.64217e-014 -12.4908 6.14884e-013
lhand 11.0976 10.2243 -34.7291
rfemur -22.9678 28.1329 -3.2996
rtibia -1.89839e-014 -3.49861e-014 -1.23246e-014
rfoot -187.702 -57.6523 214.108
rtoes -9.14409e-015 1.36664e-015 9.12422e-014
lfemur -29.5185 -41.8869 8.54094
ltibia 25.4276 1.59028e-015 -2.24627e-014
lfoot -16.8887 6.47743 8.19672
ltoes -8.02593e-015 9.28324e-014 -7.15625e-015
1457
root -10.4092 3.80693 -0.578768 170.404 -27.8759 159.242
lowerback -20.9827 -0.968331 -11.086
upperback -5.51233 0.298028 0.0946626
thorax 5.52799 -0.255759 6.47321
lowerneck 12.4316 -6.38741 2.538
upperneck 3.95469 -8.65293 2.88599
head -0.786581 -4.55567 0.853478
rshoulderjoint -2.47522 7.52667 -29.2636
rhumerus 348.198 -7.87034 -411.015
rradius 25.4979 6.67916e-014 2.88238e-015
rwrist -8.23267e-014 8.9346 -5.47336e-014
rhand 8.95114 -7.55543 32.6383
lshoulderjoint -1.65229 -4.53996 31.0231
lhumerus 351.704 23.8893 414.3
lradius 14.5959 1.33583e-013 -6.75868e-014
lwrist -1.21326e-013 -12.4447 -2.2311e-013
lhand 10.7115 10.3394 -35.0836
rfemur -23.6085 28.9777 -4.56561
rtibia -2.06736e-014 -1.59028e-014 1.98785e-015
rfoot -187.791 -57.346 214.421
rtoes 8.62725e-014 2.89977e-014 -4.86029e-014
lfemur -28.4725 -40.7101 6.96785
ltibia 24.6961 2.38542e-014 1.95803e-014
lfoot -16.4982 5.89033 8.4577
ltoes 7.10655e-015 -5.82439e-014 8.90555e-014
1458
root -10.4208 3.80776 -0.562447 171.176 -26.5876 159.54
lowerback -20.6382 -1.06214 -11.2034
upperback -5.43207 0.168863 0.117449
thorax 5.45912 -0.314963 6.53009
lowerneck 12.2428 -6.38656 2.49817
upperneck 3.87916 -8.65668 2.86086
head -0.778949 -4.55464 0.846446
rshoulderjoint -2.48519 7.51179 -29.366
rhumerus 348.297 -8.32495 -410.931
rradius 25.6545 3.81667e-014 -1.49287e-013
rwrist 1.65035e-013 8.94431 -3.23581e-013
rhand 8.97454 -7.56019 32.5722
lshoulderjoint -1.64006 -4.51348 30.9937
lhumerus 351.855 23.2768 414.469
lradius 14.7094 3.81667e-014 -6.0033e-014
lwrist 3.41799e-014 -12.2957 -1.33464e-013
lhand 10.5994 9.98665 -35.341
rfemur -24.2219 29.7814 -5.65443
rtibia 4.67144e-015 -6.36111e-015 1.27222e-014
rfoot -187.679 -56.1193 214.453
rtoes 3.57812e-015 -6.36608e-014 -7.16619e-014
lfemur -27.5173 -39.7482 5.75123
ltibia 23.8601 -1.59028e-015 1.2424e-014
lfoot -16.0411 6.09008 8.63279
ltoes 6.26172e-015 -3.89618e-014 5.56597e-014
1459
root -10.4329 3.8083 -0.544576 171.969 -24.9557 159.595
lowerback -20.5366 -1.06316 -11.2882
upperback -5.40796 0.166124 0.0942685
thorax 5.43063 -0.320257 6.55094
lowerneck 11.987 -6.36873 2.43108
upperneck 3.83203 -8.6429 2.82484
head -0.750385 -4.5432 0.835991
rshoulderjoint -2.38875 7.21961 -29.363
rhumerus 348.543 -8.45403 -410.804
rradius 25.8458 -2.83069e-013 3.06924e-013
rwrist -1.3312e-012 8.87589 1.01402e-012
rhand 8.95188 -7.38467 32.5518
lshoulderjoint -1.59035 -4.39688 30.9077
lhumerus 352.051 22.5304 414.588
lradius 14.8528 -2.73528e-013 -1.11319e-014
lwrist -7.06905e-013 -12.1866 -3.00984e-014
lhand 10.385 9.6284 -35.6423
rfemur -25.3408 30.7675 -7.15977
rtibia 4.07509e-015 -3.18055e-015 -2.0276e-014
rfoot -187.609 -55.0686 214.559
rtoes -7.31528e-014 4.63665e-014 3.37934e-015
lfemur -26.8199 -38.5607 4.63644
ltibia 22.9511 -2.06736e-014 -1.19271e-015
lfoot -15.6114 6.29807 8.8516
ltoes -5.68524e-014 2.5842e-014 -6.99722e-014
1460
root -10.4447 3.80912 -0.527633 172.808 -23.489 159.694
lowerback -20.355 -1.08092 -11.4921
upperback -5.45776 0.14344 0.0198423
thorax 5.27931 -0.330187 6.57703
lowerneck 12.1513 -6.39033 2.45312
upperneck 3.6671 -8.66038 2.80715
head -0.833019 -4.55661 0.83967
rshoulderjoint -2.3933 7.19205 -29.4611
rhumerus 348.49 -8.8408 -410.843
rradius 26.0541 9.22361e-014 -2.22838e-013
rwrist 5.35916e-013 8.83158 -5.71322e-013
rhand 8.87519 -7.24774 32.5949
lshoulderjoint -1.70845 -4.66931 31.123
lhumerus 352.015 21.0949 414.828
lradius 14.909 3.49861e-014 -2.20651e-013
lwrist 4.42845e-013 -11.8858 -3.51838e-013
lhand 9.78031 9.85667 -36.193
rfemur -26.2739 31.6435 -8.56657
rtibia 2.25621e-014 3.18055e-015 1.98785e-014
rfoot -186.908 -49.9279 213.82
rtoes -3.89618e-014 1.15345e-013 -4.18442e-014
lfemur -26.0545 -37.4438 3.48877
ltibia 21.9809 -1.27222e-014 -4.67144e-015
lfoot -15.234 6.81007 8.88668
ltoes 8.48811e-014 8.74653e-015 1.59028e-015
1461
root -10.4566 3.81001 -0.510714 173.689 -22.0081 159.758
lowerback -20.1865 -1.14006 -11.7587
upperback -5.46386 0.0866666 -0.0369761
thorax 5.18857 -0.360145 6.65053
lowerneck 12.1736 -6.38409 2.46998
upperneck 3.48536 -8.63756 2.74369
head -0.89961 -4.54455 0.822828
rshoulderjoint -2.42526 7.28753 -29.4639
rhumerus 348.502 -8.77421 -410.786
rradius 26.2848 -9.54166e-015 -2.61799e-013
rwrist 4.06979e-013 8.65874 -5.26016e-013
rhand 8.61367 -7.25256 32.8545
lshoulderjoint -1.72257 -4.68925 31.1968
lhumerus 352.124 20.2752 414.996
lradius 14.9661 -1.78111e-013 -4.45278e-014
lwrist 2.59114e-013 -11.7881 6.37632e-014
lhand 9.63501 9.62912 -36.6203
rfemur -27.3277 32.4797 -10.1353
rtibia 1.75924e-014 -8.5875e-014 1.98785e-014
rfoot -187.026 -49.9852 214.107
rtoes 2.59215e-013 -7.48921e-014 8.64713e-014
lfemur -25.2958 -36.0893 2.245
ltibia 20.9943 9.38264e-014 1.45113e-014
lfoot -14.8723 7.28697 8.72777
ltoes 3.28492e-014 -8.42847e-014 3.4191e-013
1462
root -10.4679 3.81107 -0.49313 174.409 -20.5359 159.81
lowerback -19.9406 -1.16607 -11.8807
upperback -5.48126 0.0329679 -0.050391
thorax 5.04757 -0.382376 6.69009
lowerneck 12.1134 -6.38611 2.48015
upperneck 3.34139 -8.62967 2.66335
head -0.940396 -4.53768 0.797843
rshoulderjoint -2.44263 7.32933 -29.489
rhumerus 348.507 -9.02193 -410.678
rradius 26.4984 -2.8943e-013 -1.08934e-013
rwrist -2.75276e-013 8.66163 1.19038e-013
rhand 8.46889 -7.06266 32.977
lshoulderjoint -1.7523 -4.7565 31.251
lhumerus 352.206 19.4084 415.134
lradius 15.0683 -5.27972e-013 -4.73108e-014
lwrist 2.19251e-014 -11.7101 1.92453e-013
lhand 9.55016 9.59106 -37.0688
rfemur -28.4105 33.299 -11.5442
rtibia -3.39922e-014 -7.31528e-014 -1.59028e-015
rfoot -187.008 -48.6917 214.16
rtoes 1.28812e-013 -1.45113e-014 8.8658e-014
lfemur -24.5213 -34.4614 1.11369
ltibia 19.9483 5.24792e-014 -9.19379e-015
lfoot -14.4845 7.65516 8.32264
ltoes 2.13694e-014 3.10104e-014 1.69365e-013
1463
root -10.4807 3.81126 -0.4773 175.201 -19.0234 159.711
lowerback -19.9706 -1.20656 -12.0795
upperback -5.51252 -0.00027408 -0.0905243
thorax 5.02918 -0.407719 6.75041
lowerneck 12.1634 -6.36704 2.43474
upperneck 3.15592 -8.59658 2.60841
head -1.01026 -4.521 0.794332
rshoulderjoint -2.49587 7.46662 -29.543
rhumerus 348.455 -8.53419 -410.62
rradius 26.729 3.21236e-013 1.87255e-013
rwrist 5.58579e-014 8.37578 2.89336e-014
rhand 8.02864 -7.23145 33.3759
lshoulderjoint -1.76918 -4.80137 31.2553
lhumerus 352.154 18.7055 415.251
lradius 15.1469 4.83444e-013 1.47101e-013
lwrist -4.19716e-013 -12.6698 -6.15312e-014
lhand 9.07671 10.533 -37.5979
rfemur -29.6449 34.0791 -13.1909
rtibia 9.74045e-015 1.08139e-013 -7.95139e-015
rfoot -186.981 -47.7087 214.249
rtoes -2.42517e-013 -1.8646e-013 -1.15891e-013
lfemur -23.8439 -32.8361 -0.102147
ltibia 18.8396 -5.88403e-014 -7.8023e-015
lfoot -14.0728 7.47345 8.08979
ltoes -3.67752e-014 4.45278e-014 -1.74135e-013
1464
root -10.4924 3.81197 -0.46093 175.796 -17.4933 159.7
lowerback -19.854 -1.21075 -12.0792
upperback -5.53771 -0.0395648 -0.0525466
thorax 4.9469 -0.426555 6.78168
lowerneck 12.2618 -6.3358 2.32188
upperneck 2.95695 -8.55519 2.59561
head -1.08838 -4.50228 0.81667
rshoulderjoint -2.51381 7.50211 -29.5855
rhumerus 348.483 -8.66054 -410.582
rradius 26.9487 -5.725e-014 4.29375e-014
rwrist -6.79144e-013 8.26453 2.23368e-013
rhand 7.86562 -6.97204 33.5054
lshoulderjoint -1.7984 -4.88633 31.2346
lhumerus 352.246 18.8306 415.332
lradius 15.2043 -2.16278e-013 6.83819e-014
lwrist -5.03524e-013 -13.0093 1.25677e-013
lhand 9.32668 10.5453 -37.8261
rfemur -30.8328 34.9104 -14.5512
rtibia 4.11484e-014 -6.36111e-015 -1.51076e-014
rfoot -187.03 -46.6283 214.286
rtoes 2.38542e-014 3.17559e-014 7.7526e-015
lfemur -23.0979 -31.0382 -1.1366
ltibia 17.7475 2.54444e-014 8.19987e-015
lfoot -13.578 7.53002 7.70091
ltoes -7.15625e-014 -1.35174e-014 9.78021e-014
1465
root -10.504 3.81281 -0.445149 176.695 -15.9373 159.675
lowerback -19.7794 -1.25193 -12.3932
upperback -5.53416 -0.0564694 -0.120912
thorax 4.90675 -0.442172 6.87986
lowerneck 12.2453 -6.30874 2.32696
upperneck 2.85235 -8.515 2.5554
head -1.12208 -4.48199 0.804023
rshoulderjoint -2.60145 7.78007 -29.5535
rhumerus 348.459 -8.8403 -410.45
rradius 27.0949 1.90833e-014 4.27188e-013
rwrist -1.29631e-012 8.23074 9.22319e-013
rhand 7.6235 -7.09661 33.5191
lshoulderjoint -1.80919 -4.90721 31.2669
lhumerus 352.435 19.009 415.388
lradius 15.2456 1.17681e-013 -5.1684e-015
lwrist -9.13107e-013 -12.9843 -2.71321e-013
lhand 9.72473 10.371 -37.9474
rfemur -32.0821 35.7382 -16.2666
rtibia -8.54774e-015 0 -1.27222e-014
rfoot -187.197 -46.6866 214.362
rtoes -1.35174e-014 6.6742e-014 -1.98785e-015
lfemur -22.4499 -29.4365 -2.41069
ltibia 16.765 9.54166e-015 9.14409e-015
lfoot -13.1427 7.39009 7.59633
ltoes -2.56432e-014 -2.38542e-015 4.13472e-014
1466
root -10.5169 3.81382 -0.431474 177.547 -14.2137 159.829
lowerback -19.6997 -1.18509 -12.5056
upperback -5.4634 0.0445889 -0.162637
thorax 4.91924 -0.399494 6.92085
lowerneck 12.2886 -6.28072 2.23633
upperneck 2.71355 -8.48233 2.56588
head -1.1711 -4.46778 0.82627
rshoulderjoint -2.43207 7.35611 -29.3522
rhumerus 348.74 -8.77164 -410.283
rradius 27.2181 1.52667e-013 -8.88567e-014
rwrist 6.56028e-013 8.00961 -3.87032e-013
rhand 7.57848 -6.65492 33.3475
lshoulderjoint -1.81354 -4.92975 31.2266
lhumerus 352.605 19.2184 415.407
lradius 15.2375 8.26944e-014 2.74323e-014
lwrist 5.16168e-013 -13.3931 1.18518e-013
lhand 9.85605 10.6538 -38.0854
rfemur -33.2046 36.8083 -17.8196
rtibia 2.26615e-014 -5.725e-014 3.18055e-014
rfoot -187.259 -44.9504 213.89
rtoes 1.31993e-013 -2.49475e-014 4.17448e-014
lfemur -21.5788 -27.9397 -3.65496
ltibia 15.8052 4.29375e-014 -1.90088e-015
lfoot -12.7426 7.0547 7.79279
ltoes 8.72665e-014 -5.00937e-014 1.33583e-013
